# xmcd
#
# Track frame offsets: 
#        150
#        26029
#        49682
#        75810
#        104249
#        122119
#        147949
#        170920
#        178507
#        198589
#
# Disc length: 2768 seconds
#
# Revision: 4
# Processed by: cddbd v1.5.2PL0 Copyright (c) Steve Scherf et al.
# Submitted via: ExactAudioCopy v1.3
#
DISCID=8c0ace0a
DTITLE=Joyce Cooling - Revolving Door 
DYEAR=2006
DGENRE=Blues
TTITLE0=Mildred's Attraction
TTITLE1=Cool Of The Night
TTITLE2=Revolving Door
TTITLE3=At The Modern
TTITLE4=I'll Always Love You (Ode to the Audience)
TTITLE5=Come And Get It
TTITLE6=Little Sister
TTITLE7=In Case Of Rain
TTITLE8=Jessie's Bench
TTITLE9=One Again
EXTD=Narada Jazz Productions, Inc.\nVirgin
EXTT0=
EXTT1=
EXTT2=
EXTT3=
EXTT4=
EXTT5=
EXTT6=
EXTT7=
EXTT8=
EXTT9=
PLAYORDER=
